<?xml version="1.0" encoding="utf-8"?>
<!-- Generator: Adobe Illustrator 16.0.0, SVG Export Plug-In . SVG Version: 6.00 Build 0)  -->
<!DOCTYPE svg PUBLIC "-//W3C//DTD SVG 1.1//EN" "http://www.w3.org/Graphics/SVG/1.1/DTD/svg11.dtd">
<svg version="1.1" id="Слой_1" xmlns="http://www.w3.org/2000/svg" xmlns:xlink="http://www.w3.org/1999/xlink" x="0px" y="0px"
	 width="250px" height="250px" viewBox="0 0 250 250" enable-background="new 0 0 250 250" xml:space="preserve">
<g>
	<path fill="#FFFFFF" d="M12,31c-0.402,0-0.8-0.121-1.139-0.355C10.322,30.27,10,29.656,10,29V16.829L1.586,8.414
		C1.211,8.039,1,7.53,1,7V3c0-1.104,0.896-2,2-2h26c1.104,0,2,0.896,2,2v4c0,0.53-0.211,1.039-0.586,1.414L22,16.829V26
		c0,0.834-0.518,1.58-1.298,1.873l-8,3C12.475,30.958,12.237,31,12,31z M5,6.171l8.414,8.415C13.789,14.961,14,15.47,14,16v10.113
		l4-1.5V16c0-0.53,0.211-1.039,0.586-1.414L27,6.171V5H5V6.171z"/>
</g>
<g>
	<path fill="#EF4448" d="M12,64c-0.402,0-0.8-0.121-1.139-0.355C10.322,63.27,10,62.656,10,62V49.829l-8.414-8.415
		C1.211,41.039,1,40.53,1,40v-4c0-1.104,0.896-2,2-2h26c1.104,0,2,0.896,2,2v4c0,0.53-0.211,1.039-0.586,1.414L22,49.829V59
		c0,0.834-0.518,1.58-1.298,1.873l-8,3C12.475,63.958,12.237,64,12,64z M5,39.171l8.414,8.415C13.789,47.961,14,48.47,14,49v10.113
		l4-1.5V49c0-0.53,0.211-1.039,0.586-1.414L27,39.171V38H5V39.171z"/>
</g>
<g>
	<path fill="#EF4347" d="M183.568,9.129c0.629,1.129,0.989,2.427,0.989,3.808c0,4.336-3.527,7.863-7.863,7.863
		s-7.863-3.527-7.863-7.863c0-1.381,0.361-2.679,0.99-3.808h-5.127v12.638c0,1.785,1.447,3.232,3.233,3.232h17.533
		c1.786,0,3.233-1.447,3.233-3.232V9.129H183.568z"/>
	<path fill="#EF4347" d="M176.694,7.263c-3.168,0-5.736,2.568-5.736,5.737c0,3.168,2.568,5.736,5.736,5.736
		c3.169,0,5.736-2.568,5.736-5.736C182.431,9.831,179.863,7.263,176.694,7.263z M179.849,13.863c-0.535,0-0.969-0.434-0.969-0.968
		c0-1.205-0.98-2.186-2.186-2.186c-0.534,0-0.968-0.434-0.968-0.968c0-0.535,0.433-0.968,0.968-0.968
		c2.272,0,4.121,1.849,4.121,4.121C180.815,13.43,180.383,13.863,179.849,13.863z"/>
	<path fill="#EF4347" d="M185.461,1h-17.533c-1.786,0-3.233,1.447-3.233,3.232v2.961h6.648c1.406-1.311,3.284-2.119,5.352-2.119
		c2.068,0,3.947,0.809,5.352,2.119h6.648V4.232C188.694,2.447,187.247,1,185.461,1z M186.333,5.804h-2.861V2.942h2.861V5.804z"/>
</g>
<path fill="#EF4347" d="M230.925,11.943c0,0,2.869-0.224,2.869-3.729c0-3.504-2.348-5.215-5.319-5.215h-9.78v19.587h9.78
	c0,0,5.969,0.195,5.969-5.78C234.444,16.807,234.704,11.943,230.925,11.943z M223.005,6.479h5.47c0,0,1.329,0,1.329,2.039
	c0,2.038-0.782,2.333-1.67,2.333h-5.129V6.479z M228.197,19.105h-5.192V13.87h5.47c0,0,1.982-0.026,1.982,2.689
	C230.457,18.852,228.976,19.089,228.197,19.105z M242.407,7.983c-7.229,0-7.223,7.523-7.223,7.523s-0.496,7.487,7.223,7.487
	c0,0,6.431,0.385,6.431-5.21h-3.307c0,0,0.108,2.107-3.014,2.107c0,0-3.309,0.23-3.309-3.406h9.739
	C248.95,16.487,250.016,7.983,242.407,7.983z M245.349,13.872h-6.174c0,0,0.404-3.021,3.308-3.021
	C245.383,10.852,245.349,13.872,245.349,13.872z M246.119,4.152h-7.755v2.412h7.754L246.119,4.152L246.119,4.152z"/>
<path fill="#EF4347" d="M76.976,25h-4.497V13h-3V8.863h3l-0.005-2.438C72.474,3.053,73.388,1,77.362,1h3.309v4.136h-2.067
	c-1.548,0-1.622,0.578-1.622,1.657l-0.006,2.07h3.719l-0.438,4.135L76.979,13L76.976,25z"/>
<path fill="#EF4347" d="M134.694,13c0,2.176-0.536,4.185-1.609,6.023c-1.072,1.838-2.528,3.294-4.367,4.366
	c-1.838,1.073-3.846,1.61-6.023,1.61c-1.156,0-2.292-0.168-3.406-0.5c0.615-0.97,1.021-1.824,1.219-2.563
	c0.094-0.354,0.375-1.453,0.844-3.296c0.208,0.406,0.588,0.758,1.14,1.055c0.552,0.296,1.146,0.445,1.781,0.445
	c1.261,0,2.386-0.357,3.375-1.07c0.99-0.714,1.756-1.695,2.297-2.946c0.542-1.249,0.813-2.655,0.813-4.219
	c0-1.187-0.31-2.302-0.93-3.343c-0.619-1.042-1.518-1.891-2.695-2.547c-1.177-0.656-2.505-0.984-3.984-0.984
	c-1.093,0-2.114,0.15-3.062,0.452c-0.948,0.303-1.752,0.703-2.414,1.204c-0.662,0.5-1.229,1.075-1.703,1.726
	c-0.474,0.651-0.823,1.325-1.047,2.024c-0.224,0.697-0.335,1.396-0.335,2.094c0,1.083,0.208,2.035,0.625,2.859
	c0.417,0.822,1.026,1.4,1.828,1.734c0.313,0.124,0.51,0.02,0.593-0.313c0.021-0.073,0.063-0.234,0.125-0.484
	c0.063-0.251,0.104-0.406,0.125-0.469c0.062-0.24,0.005-0.464-0.172-0.673c-0.531-0.635-0.797-1.421-0.797-2.358
	c0-1.573,0.545-2.926,1.633-4.055c1.088-1.131,2.513-1.696,4.273-1.696c1.573,0,2.8,0.428,3.68,1.282
	c0.881,0.854,1.32,1.963,1.32,3.328c0,1.771-0.356,3.275-1.07,4.516c-0.713,1.239-1.627,1.859-2.742,1.859
	c-0.635,0-1.146-0.228-1.531-0.68c-0.386-0.453-0.505-0.998-0.36-1.634c0.083-0.364,0.222-0.851,0.415-1.46s0.349-1.146,0.468-1.61
	c0.12-0.463,0.18-0.856,0.18-1.179c0-0.521-0.141-0.954-0.422-1.297c-0.281-0.344-0.682-0.516-1.204-0.516
	c-0.646,0-1.192,0.296-1.641,0.891c-0.448,0.594-0.671,1.333-0.671,2.218c0,0.761,0.13,1.396,0.39,1.907l-1.547,6.53
	c-0.177,0.729-0.244,1.651-0.203,2.766c-2.146-0.948-3.88-2.411-5.203-4.39c-1.323-1.979-1.985-4.183-1.985-6.609
	c0-2.177,0.537-4.186,1.61-6.023c1.073-1.839,2.529-3.295,4.367-4.367C118.51,1.535,120.518,1,122.694,1
	c2.177,0,4.186,0.535,6.023,1.609c1.839,1.072,3.295,2.528,4.367,4.367C134.158,8.814,134.694,10.823,134.694,13z"/>
<g>
	<path fill="#FFFFFF" d="M183.568,42.129c0.629,1.129,0.989,2.427,0.989,3.808c0,4.336-3.527,7.863-7.863,7.863
		s-7.863-3.527-7.863-7.863c0-1.381,0.361-2.679,0.99-3.808h-5.127v12.638c0,1.785,1.447,3.232,3.233,3.232h17.533
		c1.786,0,3.233-1.447,3.233-3.232V42.129H183.568z"/>
	<path fill="#FFFFFF" d="M176.694,40.263c-3.168,0-5.736,2.568-5.736,5.737c0,3.168,2.568,5.736,5.736,5.736
		c3.169,0,5.736-2.568,5.736-5.736C182.431,42.831,179.863,40.263,176.694,40.263z M179.849,46.863
		c-0.535,0-0.969-0.434-0.969-0.968c0-1.205-0.98-2.186-2.186-2.186c-0.534,0-0.968-0.434-0.968-0.968
		c0-0.535,0.433-0.968,0.968-0.968c2.272,0,4.121,1.849,4.121,4.121C180.815,46.43,180.383,46.863,179.849,46.863z"/>
	<path fill="#FFFFFF" d="M185.461,34h-17.533c-1.786,0-3.233,1.447-3.233,3.232v2.961h6.648c1.406-1.311,3.284-2.119,5.352-2.119
		c2.068,0,3.947,0.809,5.352,2.119h6.648v-2.961C188.694,35.447,187.247,34,185.461,34z M186.333,38.804h-2.861v-2.861h2.861V38.804
		z"/>
</g>
<path fill="#FFFFFF" d="M230.925,44.943c0,0,2.869-0.224,2.869-3.729c0-3.504-2.348-5.215-5.319-5.215h-9.78v19.587h9.78
	c0,0,5.969,0.195,5.969-5.78C234.444,49.807,234.704,44.943,230.925,44.943z M223.005,39.479h5.47c0,0,1.329,0,1.329,2.039
	c0,2.038-0.782,2.333-1.67,2.333h-5.129V39.479z M228.197,52.105h-5.192V46.87h5.47c0,0,1.982-0.026,1.982,2.689
	C230.457,51.852,228.976,52.089,228.197,52.105z M242.407,40.983c-7.229,0-7.223,7.523-7.223,7.523s-0.496,7.487,7.223,7.487
	c0,0,6.431,0.385,6.431-5.21h-3.307c0,0,0.108,2.107-3.014,2.107c0,0-3.309,0.23-3.309-3.406h9.739
	C248.95,49.487,250.016,40.983,242.407,40.983z M245.349,46.872h-6.174c0,0,0.404-3.021,3.308-3.021
	C245.383,43.852,245.349,46.872,245.349,46.872z M246.119,37.152h-7.755v2.412h7.754L246.119,37.152L246.119,37.152z"/>
<path fill="#FFFFFF" d="M76.976,58h-4.497V46h-3v-4.137h3l-0.005-2.438c0-3.373,0.915-5.426,4.889-5.426h3.309v4.136h-2.067
	c-1.548,0-1.622,0.578-1.622,1.657l-0.006,2.07h3.719l-0.438,4.135L76.979,46L76.976,58z"/>
<path fill="#FFFFFF" d="M134.694,46c0,2.176-0.536,4.185-1.609,6.023c-1.072,1.838-2.528,3.294-4.367,4.366
	c-1.838,1.073-3.846,1.61-6.023,1.61c-1.156,0-2.292-0.168-3.406-0.5c0.615-0.97,1.021-1.824,1.219-2.563
	c0.094-0.354,0.375-1.453,0.844-3.296c0.208,0.406,0.588,0.758,1.14,1.055c0.552,0.296,1.146,0.445,1.781,0.445
	c1.261,0,2.386-0.357,3.375-1.07c0.99-0.714,1.756-1.695,2.297-2.946c0.542-1.249,0.813-2.655,0.813-4.219
	c0-1.187-0.31-2.302-0.93-3.343c-0.619-1.042-1.518-1.891-2.695-2.547c-1.177-0.656-2.505-0.984-3.984-0.984
	c-1.093,0-2.114,0.15-3.062,0.452c-0.948,0.303-1.752,0.703-2.414,1.204c-0.662,0.5-1.229,1.075-1.703,1.726
	c-0.474,0.651-0.823,1.325-1.047,2.024c-0.224,0.697-0.335,1.396-0.335,2.094c0,1.083,0.208,2.035,0.625,2.859
	c0.417,0.822,1.026,1.4,1.828,1.734c0.313,0.124,0.51,0.02,0.593-0.313c0.021-0.073,0.063-0.234,0.125-0.484
	c0.063-0.251,0.104-0.406,0.125-0.469c0.062-0.24,0.005-0.464-0.172-0.673c-0.531-0.635-0.797-1.421-0.797-2.358
	c0-1.573,0.545-2.926,1.633-4.055c1.088-1.131,2.513-1.696,4.273-1.696c1.573,0,2.8,0.428,3.68,1.282
	c0.881,0.854,1.32,1.963,1.32,3.328c0,1.771-0.356,3.275-1.07,4.516c-0.713,1.239-1.627,1.859-2.742,1.859
	c-0.635,0-1.146-0.228-1.531-0.68c-0.386-0.453-0.505-0.998-0.36-1.634c0.083-0.364,0.222-0.851,0.415-1.46s0.349-1.146,0.468-1.61
	c0.12-0.463,0.18-0.856,0.18-1.179c0-0.521-0.141-0.954-0.422-1.297c-0.281-0.344-0.682-0.516-1.204-0.516
	c-0.646,0-1.192,0.296-1.641,0.891c-0.448,0.594-0.671,1.333-0.671,2.218c0,0.761,0.13,1.396,0.39,1.907l-1.547,6.53
	c-0.177,0.729-0.244,1.651-0.203,2.766c-2.146-0.948-3.88-2.411-5.203-4.39c-1.323-1.979-1.985-4.183-1.985-6.609
	c0-2.177,0.537-4.186,1.61-6.023c1.073-1.839,2.529-3.295,4.367-4.367c1.838-1.074,3.846-1.609,6.023-1.609
	c2.177,0,4.186,0.535,6.023,1.609c1.839,1.072,3.295,2.528,4.367,4.367C134.158,41.814,134.694,43.823,134.694,46z"/>
<g>
	<path fill="#333333" d="M183.568,73.129c0.629,1.129,0.989,2.427,0.989,3.808c0,4.336-3.527,7.863-7.863,7.863
		s-7.863-3.527-7.863-7.863c0-1.381,0.361-2.679,0.99-3.808h-5.127v12.638c0,1.785,1.447,3.232,3.233,3.232h17.533
		c1.786,0,3.233-1.447,3.233-3.232V73.129H183.568z"/>
	<path fill="#333333" d="M176.694,71.263c-3.168,0-5.736,2.568-5.736,5.737c0,3.168,2.568,5.736,5.736,5.736
		c3.169,0,5.736-2.568,5.736-5.736C182.431,73.831,179.863,71.263,176.694,71.263z M179.849,77.863
		c-0.535,0-0.969-0.434-0.969-0.968c0-1.205-0.98-2.186-2.186-2.186c-0.534,0-0.968-0.434-0.968-0.968
		c0-0.535,0.433-0.968,0.968-0.968c2.272,0,4.121,1.849,4.121,4.121C180.815,77.43,180.383,77.863,179.849,77.863z"/>
	<path fill="#333333" d="M185.461,65h-17.533c-1.786,0-3.233,1.447-3.233,3.232v2.961h6.648c1.406-1.311,3.284-2.119,5.352-2.119
		c2.068,0,3.947,0.809,5.352,2.119h6.648v-2.961C188.694,66.447,187.247,65,185.461,65z M186.333,69.804h-2.861v-2.861h2.861V69.804
		z"/>
</g>
<path fill="#333333" d="M230.925,75.943c0,0,2.869-0.224,2.869-3.729c0-3.504-2.348-5.215-5.319-5.215h-9.78v19.587h9.78
	c0,0,5.969,0.195,5.969-5.78C234.444,80.807,234.704,75.943,230.925,75.943z M223.005,70.479h5.47c0,0,1.329,0,1.329,2.039
	c0,2.038-0.782,2.333-1.67,2.333h-5.129V70.479z M228.197,83.105h-5.192V77.87h5.47c0,0,1.982-0.026,1.982,2.689
	C230.457,82.852,228.976,83.089,228.197,83.105z M242.407,71.983c-7.229,0-7.223,7.523-7.223,7.523s-0.496,7.487,7.223,7.487
	c0,0,6.431,0.385,6.431-5.21h-3.307c0,0,0.108,2.107-3.014,2.107c0,0-3.309,0.23-3.309-3.406h9.739
	C248.95,80.487,250.016,71.983,242.407,71.983z M245.349,77.872h-6.174c0,0,0.404-3.021,3.308-3.021
	C245.383,74.852,245.349,77.872,245.349,77.872z M246.119,68.152h-7.755v2.412h7.754L246.119,68.152L246.119,68.152z"/>
<path fill="#333333" d="M76.976,89h-4.497V77h-3v-4.137h3l-0.005-2.438c0-3.373,0.915-5.426,4.889-5.426h3.309v4.136h-2.067
	c-1.548,0-1.622,0.578-1.622,1.657l-0.006,2.07h3.719l-0.438,4.135L76.979,77L76.976,89z"/>
<path fill="#333333" d="M134.694,77c0,2.176-0.536,4.185-1.609,6.023c-1.072,1.838-2.528,3.294-4.367,4.366
	c-1.838,1.073-3.847,1.61-6.023,1.61c-1.156,0-2.292-0.168-3.406-0.5c0.615-0.97,1.021-1.824,1.219-2.563
	c0.094-0.354,0.375-1.453,0.844-3.296c0.208,0.406,0.588,0.758,1.14,1.055c0.552,0.296,1.146,0.445,1.781,0.445
	c1.261,0,2.386-0.357,3.375-1.07c0.99-0.714,1.756-1.695,2.297-2.946c0.542-1.249,0.813-2.655,0.813-4.219
	c0-1.187-0.31-2.302-0.93-3.343c-0.619-1.042-1.518-1.891-2.695-2.547c-1.177-0.656-2.505-0.984-3.984-0.984
	c-1.093,0-2.114,0.15-3.062,0.452c-0.948,0.303-1.752,0.703-2.414,1.204c-0.662,0.5-1.229,1.075-1.703,1.726
	c-0.474,0.651-0.823,1.325-1.047,2.024c-0.224,0.697-0.335,1.396-0.335,2.094c0,1.083,0.208,2.035,0.625,2.859
	c0.417,0.822,1.026,1.4,1.828,1.734c0.313,0.124,0.51,0.02,0.593-0.313c0.021-0.073,0.063-0.234,0.125-0.484
	c0.063-0.251,0.104-0.406,0.125-0.469c0.062-0.24,0.005-0.464-0.172-0.673c-0.531-0.635-0.797-1.421-0.797-2.358
	c0-1.573,0.545-2.926,1.633-4.055c1.088-1.131,2.513-1.696,4.273-1.696c1.573,0,2.8,0.428,3.68,1.282
	c0.881,0.854,1.32,1.963,1.32,3.328c0,1.771-0.356,3.275-1.07,4.516c-0.713,1.239-1.627,1.859-2.742,1.859
	c-0.635,0-1.146-0.228-1.531-0.68c-0.386-0.453-0.505-0.998-0.36-1.634c0.083-0.364,0.222-0.851,0.415-1.46s0.349-1.146,0.468-1.61
	c0.12-0.463,0.18-0.856,0.18-1.179c0-0.521-0.141-0.954-0.422-1.297c-0.281-0.344-0.682-0.516-1.204-0.516
	c-0.646,0-1.192,0.296-1.641,0.891c-0.448,0.594-0.671,1.333-0.671,2.218c0,0.761,0.13,1.396,0.39,1.907l-1.547,6.53
	c-0.177,0.729-0.244,1.651-0.203,2.766c-2.146-0.948-3.88-2.411-5.203-4.39c-1.323-1.979-1.985-4.183-1.985-6.609
	c0-2.177,0.537-4.186,1.61-6.023c1.073-1.839,2.529-3.295,4.367-4.367c1.838-1.074,3.846-1.609,6.023-1.609s4.186,0.535,6.023,1.609
	c1.839,1.072,3.295,2.528,4.367,4.367C134.158,72.814,134.694,74.823,134.694,77z"/>
</svg>
